<svg xmlns="http://www.w3.org/2000/svg" width="800" height="600" viewBox="0 0 800 600" role="img" aria-label="VectraJetson Thor Kit">
  <defs>
    <linearGradient id="bg8z20ja" x1="0" y1="0" x2="1" y2="1">
      <stop offset="0" stop-color="#1A1206"/>
      <stop offset="1" stop-color="#92400E"/>
    </linearGradient>
    <radialGradient id="glow8z20ja" cx="0.5" cy="0.45" r="0.6">
      <stop offset="0" stop-color="#FBBF24" stop-opacity="0.25"/>
      <stop offset="1" stop-color="#FBBF24" stop-opacity="0"/>
    </radialGradient>
    <pattern id="dots8z20ja" width="26" height="26" patternUnits="userSpaceOnUse">
      <circle cx="2" cy="2" r="1.4" fill="#FFFFFF" opacity="0.05"/>
    </pattern>
  </defs>
  <rect width="800" height="600" fill="url(#bg8z20ja)"/>
  <rect width="800" height="600" fill="url(#dots8z20ja)"/>
  <rect width="800" height="600" fill="url(#glow8z20ja)"/>
  
        <circle cx="400" cy="310" r="78" fill="none" stroke="#FBBF24" stroke-width="4"/>
        <circle cx="400" cy="310" r="30" fill="#FBBF24" opacity="0.85"/>
        <line x1="478.0" y1="310.0" x2="500.0" y2="310.0" stroke="#FBBF24" stroke-width="6" stroke-linecap="round"/><line x1="455.2" y1="365.2" x2="470.7" y2="380.7" stroke="#FBBF24" stroke-width="6" stroke-linecap="round"/><line x1="400.0" y1="388.0" x2="400.0" y2="410.0" stroke="#FBBF24" stroke-width="6" stroke-linecap="round"/><line x1="344.8" y1="365.2" x2="329.3" y2="380.7" stroke="#FBBF24" stroke-width="6" stroke-linecap="round"/><line x1="322.0" y1="310.0" x2="300.0" y2="310.0" stroke="#FBBF24" stroke-width="6" stroke-linecap="round"/><line x1="344.8" y1="254.8" x2="329.3" y2="239.3" stroke="#FBBF24" stroke-width="6" stroke-linecap="round"/><line x1="400.0" y1="232.0" x2="400.0" y2="210.0" stroke="#FBBF24" stroke-width="6" stroke-linecap="round"/><line x1="455.2" y1="254.8" x2="470.7" y2="239.3" stroke="#FBBF24" stroke-width="6" stroke-linecap="round"/>
  <text x="56" y="92" font-family="Inter, system-ui, sans-serif" font-size="15" letter-spacing="3" font-weight="600" fill="#FBBF24">COMPONENT</text>
  <text x="56" y="480" font-family="Inter, system-ui, sans-serif" font-size="34" font-weight="700" fill="#FFFFFF">VectraJetson Thor Kit</text>
  <text x="56" y="532" font-family="Inter, system-ui, sans-serif" font-size="17" fill="#CBD5E1">Physical AI robotics kit</text>
  <text x="744" y="92" text-anchor="end" font-family="Inter, system-ui, sans-serif" font-size="16" font-weight="700" fill="#FFFFFF" opacity="0.9">VectraCompute</text>
</svg>